<svg width="70" height="54" viewBox="0 0 70 54" fill="none" xmlns="http://www.w3.org/2000/svg"><g clip-path="url(#clip0_10285_14591)"><path d="M-0.000366211 15.68C-0.000366211 10.1915 -0.000366211 7.44723 1.06777 5.35089C2.00733 3.5069 3.50654 2.00769 5.35053 1.06814C7.44686 0 10.1911 0 15.6796 0H54.3196C59.8081 0 62.5524 0 64.6487 1.06814C66.4927 2.00769 67.9919 3.5069 68.9315 5.35089C69.9996 7.44723 69.9996 10.1915 69.9996 15.68V38.32C69.9996 43.8085 69.9996 46.5528 68.9315 48.6491C67.9919 50.4931 66.4927 51.9923 64.6487 52.9319C62.5524 54 59.8081 54 54.3196 54H15.6796C10.1911 54 7.44686 54 5.35053 52.9319C3.50654 51.9923 2.00733 50.4931 1.06777 48.6491C-0.000366211 46.5528 -0.000366211 43.8085 -0.000366211 38.32V15.68Z" fill="#FF4B4B"/><path d="M69.9996 27V38.32C69.9996 43.8085 69.9996 46.5528 68.9315 48.6491C67.9919 50.4931 66.4927 51.9923 64.6487 52.9319C62.5524 54 59.8081 54 54.3196 54H15.6796C10.1911 54 7.44686 54 5.35053 52.9319C3.50654 51.9923 2.00733 50.4931 1.06777 48.6491C-0.000366211 46.5528 -0.000366211 43.8085 -0.000366211 38.32V27H69.9996Z" fill="#1CB0F6"/><path fill-rule="evenodd" clip-rule="evenodd" d="M0.175447 8.78397C-0.000366211 10.4885 -0.000366211 12.6722 -0.000366211 15.6801V38.3201C-0.000366211 41.328 -0.000366211 43.5116 0.175445 45.2161C0.380808 46.9529 0.763342 47.9671 1.30858 48.9866C1.82142 49.9455 2.47819 50.7805 3.26688 51.4796L34.9996 27.0001L3.26688 2.52051C2.47819 3.21959 1.82142 4.0546 1.30858 5.01352C0.763343 6.03303 0.38081 7.04727 0.175447 8.78397Z" fill="#4B4B4B"/><path d="M69.9996 16.8823V37.1177H26.4459V16.8823H69.9996Z" fill="#EEEEEE"/><path d="M4.00093 1.89959C4.4256 1.58789 4.87667 1.3095 5.35052 1.06806C7.36102 0.0436585 9.96748 0.00171735 15.0191 0C15.0226 0.000264483 15.0262 0.000529044 15.0297 0.000793977L38.5787 17.6434L28.2916 31.3744L1.8541 11.5679C1.59916 7.99858 1.60052 5.92533 2.31772 4.31857C2.72876 3.3977 3.29914 2.58203 4.00093 1.89959Z" fill="#EEEEEE"/><path d="M0.139144 44.8293C0.0296335 43.5379 0.00605376 41.9801 0.000976562 40.0236L20.4325 24.7062L22.7887 27.8491L0.139144 44.8293Z" fill="#FFD900"/><path fill-rule="evenodd" clip-rule="evenodd" d="M0.00137405 13.8528C0.00731809 11.8955 0.0335553 10.3414 0.149363 9.05444L24.3347 27.186L21.9785 30.3289L0.00137405 13.8528Z" fill="#FFD900"/><path d="M8.64955 53.81C10.2235 53.9836 12.2103 53.9987 14.8939 54L37.8225 36.8106L35.4663 33.6677L8.60547 53.8051C8.62013 53.8067 8.63482 53.8084 8.64955 53.81Z" fill="#EEEEEE"/><path d="M69.9996 20.7871V33.0922H26.4459V20.7871H69.9996Z" fill="#47A600"/><path fill-rule="evenodd" clip-rule="evenodd" d="M1.06783 5.35089C0.551887 6.36347 0.28516 7.52723 0.14727 9.07842L28.8728 30.5991L36.2238 20.7871L8.72092 0.182373C7.3457 0.328739 6.28392 0.592568 5.35058 1.06813C3.50659 2.00769 2.00739 3.5069 1.06783 5.35089Z" fill="#47A600"/><path fill-rule="evenodd" clip-rule="evenodd" d="M8.5828 53.8024C7.27417 53.6532 6.25238 53.3914 5.35051 52.9318C3.50653 51.9923 2.00732 50.4931 1.06776 48.6491C0.539538 47.6124 0.272536 46.4173 0.137573 44.8101L28.8727 23.2822L36.2237 33.0942L8.5828 53.8024Z" fill="#47A600"/></g><defs><clipPath id="clip0_10285_14591"><rect width="70" height="54" fill="white" transform="translate(-0.000366211)"/></clipPath></defs></svg>